<?xml version="1.0" standalone="no"?>
<!DOCTYPE svg PUBLIC "-//W3C//DTD SVG 20010904//EN"
 "http://www.w3.org/TR/2001/REC-SVG-20010904/DTD/svg10.dtd">
<svg version="1.0" xmlns="http://www.w3.org/2000/svg"
 width="265.000000pt" height="231.000000pt" viewBox="0 0 265.000000 231.000000"
 preserveAspectRatio="xMidYMid meet">

<g transform="translate(0.000000,231.000000) scale(0.100000,-0.100000)"
fill="#000000" stroke="none">
<path d="M965 2290 c-98 -32 -177 -81 -198 -122 -17 -34 -17 -41 -2 -129 l16
-93 -38 -33 -38 -32 70 -68 c117 -113 106 -107 146 -77 143 107 375 166 568
144 463 -52 775 -448 686 -869 -55 -261 -287 -492 -563 -558 -71 -17 -75 -19
-203 -137 l-131 -121 43 -8 c24 -5 78 -6 120 -2 l75 5 72 -84 c86 -101 115
-115 201 -96 76 17 190 71 223 106 34 36 36 59 19 163 l-14 85 34 25 c19 14
68 58 109 98 l75 72 100 -16 c112 -18 140 -15 184 23 46 38 113 182 115 246 1
56 4 52 -133 160 -30 24 -54 46 -53 51 1 4 2 63 2 132 l0 125 62 37 c34 21 75
51 91 68 27 27 29 34 25 95 -4 77 -53 192 -100 237 l-29 28 -127 -3 -127 -2
-94 91 -93 91 11 74 c18 121 15 149 -19 187 -42 48 -209 117 -283 117 -36 0
-76 -31 -136 -104 l-60 -73 -148 2 -148 3 -67 80 c-90 107 -126 119 -243 82z"/>
</g>
</svg>
